<svg xmlns="http://www.w3.org/2000/svg" version="1.1" xmlns:xlink="http://www.w3.org/1999/xlink" xmlns:svgjs="http://svgjs.dev/svgjs" width="1000" height="623" viewBox="0 0 1000 623"><g transform="matrix(1,0,0,1,-0.6060606060606233,0.2522267206477409)"><svg viewBox="0 0 396 247" data-background-color="#ffffff" preserveAspectRatio="xMidYMid meet" height="623" width="1000" xmlns="http://www.w3.org/2000/svg" xmlns:xlink="http://www.w3.org/1999/xlink"><g id="tight-bounds" transform="matrix(1,0,0,1,0.2400000000000091,-0.09999999999999432)"><svg viewBox="0 0 395.52 247.2" height="247.2" width="395.52"><g><svg></svg></g><g><svg viewBox="0 0 395.52 247.2" height="247.2" width="395.52"><g transform="matrix(1,0,0,1,75.54432,87.9986520505941)"><svg viewBox="0 0 244.43135999999998 71.20269589881178" height="71.20269589881178" width="244.43135999999998"><g><svg viewBox="0 0 244.43135999999998 71.20269589881178" height="71.20269589881178" width="244.43135999999998"><g><svg viewBox="0 0 244.43135999999998 71.20269589881178" height="71.20269589881178" width="244.43135999999998"><g><svg viewBox="0 0 244.43135999999998 71.20269589881178" height="71.20269589881178" width="244.43135999999998"><g id="textblocktransform"><svg viewBox="0 0 244.43135999999998 71.20269589881178" height="71.20269589881178" width="244.43135999999998" id="textblock"><g><svg viewBox="0 0 244.43135999999998 71.20269589881178" height="71.20269589881178" width="244.43135999999998"><g transform="matrix(1,0,0,1,0,0)"><svg width="244.43135999999998" viewBox="2.0999999046325684 -37.5 130.42999267578125 38" height="71.20269589881178" data-palette-color="#000000"><path d="M2.1 0L2.1-37.5 8.1-37.5 8.1-15 14.25-25 21.05-25 13.65-13.2 21.25 0 14.45 0 8.1-11.35 8.1 0 2.1 0ZM23.35 0L23.35-25 28.6-25 29-22.35Q30.4-23.9 31.62-24.65 32.85-25.4 34.5-25.4L34.5-25.4Q35.2-25.4 35.8-25.25L35.8-25.25 35.35-19.2Q34.6-19.45 33.75-19.45L33.75-19.45Q32.55-19.45 31.6-18.9 30.65-18.35 29.35-17.05L29.35-17.05 29.35 0 23.35 0ZM37.65-28.8L37.65-35 43.65-35 43.65-28.8 37.65-28.8ZM37.65 0L37.65-25 43.65-25 43.65 0 37.65 0ZM54.44 0.5Q52.39 0.5 50.72 0.08 49.04-0.35 47.29-1.25L47.29-1.25 47.84-6.55Q51.34-4.15 53.99-4.15L53.99-4.15Q55.69-4.15 56.59-4.8 57.49-5.45 57.49-6.6L57.49-6.6Q57.49-7.8 56.67-8.58 55.84-9.35 53.44-10.5L53.44-10.5Q50.24-12.05 48.82-13.68 47.39-15.3 47.39-18.15L47.39-18.15Q47.39-21.4 49.69-23.4 51.99-25.4 55.89-25.4L55.89-25.4Q59.39-25.4 62.44-23.55L62.44-23.55 61.89-18.4Q60.44-19.65 59.12-20.3 57.79-20.95 56.29-20.95L56.29-20.95Q54.84-20.95 53.97-20.33 53.09-19.7 53.09-18.55L53.09-18.55Q53.09-17.4 54.02-16.68 54.94-15.95 57.74-14.5L57.74-14.5Q60.54-13.05 61.87-11.33 63.19-9.6 63.19-6.85L63.19-6.85Q63.19-3.45 60.82-1.48 58.44 0.5 54.44 0.5L54.44 0.5ZM73.79 0.5Q70.94 0.5 69.42-1.15 67.89-2.8 67.89-6.05L67.89-6.05 67.89-19.9 65.09-19.9 65.64-25 67.89-25 67.89-30.5 73.89-31.15 73.89-25 78.24-25 78.24-19.9 73.89-19.9 73.89-7.6Q73.89-6.05 74.52-5.33 75.14-4.6 76.49-4.6L76.49-4.6 78.29-4.6 77.74 0.5 73.79 0.5ZM81.44-28.8L81.44-35 87.44-35 87.44-28.8 81.44-28.8ZM81.44 0L81.44-25 87.44-25 87.44 0 81.44 0ZM96.89 0.5Q94.09 0.5 92.16-1.33 90.24-3.15 90.24-6.45L90.24-6.45Q90.24-9.9 92.31-11.98 94.39-14.05 97.11-14.95 99.84-15.85 102.09-15.95L102.09-15.95Q102.09-18.15 101.29-19.1 100.49-20.05 98.54-20.05L98.54-20.05Q97.04-20.05 95.64-19.58 94.24-19.1 92.49-18.15L92.49-18.15 92.09-23.2Q96.09-25.4 100.14-25.4L100.14-25.4Q103.89-25.4 106.01-23.18 108.14-20.95 108.14-16.15L108.14-16.15 108.14-8.6Q108.14-6.75 108.29-5.9 108.44-5.05 108.76-4.83 109.09-4.6 109.79-4.6L109.79-4.6 110.59-4.6 110.19 0.5 107.54 0.5Q106.14 0.5 104.86-0.3 103.59-1.1 102.99-2.4L102.99-2.4Q101.64-0.95 100.24-0.23 98.84 0.5 96.89 0.5L96.89 0.5ZM98.94-4.25Q100.64-4.25 102.14-6.05L102.14-6.05 102.14-11.75Q99.74-11.45 98.14-10.33 96.54-9.2 96.54-7.05L96.54-7.05Q96.54-5.6 97.19-4.93 97.84-4.25 98.94-4.25L98.94-4.25ZM124.83-25.4Q128.58-25.4 130.56-22.93 132.53-20.45 132.53-16.25L132.53-16.25 132.53 0 126.53 0 126.53-15.45Q126.53-20.5 123.13-20.5L123.13-20.5Q120.78-20.5 119.28-18.35L119.28-18.35 119.28 0 113.28 0 113.28-25 118.48-25 118.73-23.05Q121.18-25.4 124.83-25.4L124.83-25.4Z" opacity="1" transform="matrix(1,0,0,1,0,0)" fill="#000000" class="wordmark-text-0" data-fill-palette-color="primary" id="text-0"></path></svg></g></svg></g></svg></g></svg></g></svg></g></svg></g></svg></g><g><path d="M0 123.6c0-68.262 55.338-123.6 123.6-123.6 52.762 0 97.802 33.059 115.537 79.594l-3.444 0c-17.571-44.723-61.135-76.383-112.093-76.383-66.489 0-120.389 53.9-120.389 120.389 0 66.489 53.9 120.389 120.389 120.389 50.958 0 94.522-31.66 112.093-76.383l3.444 0c-17.734 46.535-62.775 79.594-115.537 79.594-68.262 0-123.6-55.338-123.6-123.6z" fill="#89939e" stroke="transparent" data-fill-palette-color="tertiary"></path></g></svg></g><defs></defs></svg><rect width="395.52" height="247.2" fill="none" stroke="none" visibility="hidden"></rect></g></svg></g></svg>